<svg xmlns="http://www.w3.org/2000/svg" width="1608" height="516" preserveAspectRatio="none" viewBox="0 0 2048 657"><defs><linearGradient id="a" x1="737.44" x2="1326.6" y1="247.62" y2="411.93" gradientUnits="userSpaceOnUse"><stop offset="0" stop-color="#d8b7dc"/><stop offset="1" stop-color="#8cbbf9"/></linearGradient><linearGradient id="b" x1="1398.62" x2="1827.67" y1="311.43" y2="401.2" gradientUnits="userSpaceOnUse"><stop offset="0" stop-color="#8cbff3"/><stop offset="1" stop-color="#88def4"/></linearGradient><linearGradient id="c" x1="225.36" x2="494.94" y1="297.37" y2="373.63" gradientUnits="userSpaceOnUse"><stop offset="0" stop-color="#f6dbc7"/><stop offset="1" stop-color="#ebcbcd"/></linearGradient><linearGradient id="d" x1="387.84" x2="715.9" y1="264.68" y2="434.05" gradientUnits="userSpaceOnUse"><stop offset="0" stop-color="#f0cdc8"/><stop offset="1" stop-color="#dabadb"/></linearGradient></defs><path fill="url(#a)" d="m852.6 39.56.37-.06c19.44-2.49 45.48-.52 65.55-.51l137.35-.04 197.61-.16c30.84.05 62.89-1.9 93.6.61 10.15.84 18.88 3.66 27 9.85-4.01 15.37-5.51 32.2-7.95 47.93l-12.63 78.5-40.59 252.93c-5.74 35.6-11.01 91.27-23.74 122.76-13.99 34.6-39.88 58.62-73.9 73.02-6.66 2.24-13.8 4.95-20.83 5.52-7.01.57-1.94-5.5-9.03-6.32-17.59-2.03-38.25-.2-56.17-.2l-336.41.03-48.47.03c-7.25 0-15.77.88-22.84-.33a10.5 10.5 0 0 1-5.3-2.55c-9.83-8.9-14.58-29.17-15.14-41.87-1.08-24 6.17-51.66 9.84-75.46l25.12-158.8 26.2-163.54c4.41-27.44 7.36-57.92 14.43-84.49a80.5 80.5 0 0 1 18.2-33.04c15.36-16.65 35.7-22.93 57.73-23.82m140.98 317.13c46.28 17.07 94.04 29.25 140.55 45.42-12.34 18.37-24.26 37.64-37.83 55.1-31.22-8.16-61.97-19.72-92.83-29.3-22.05-6.84-56.93-14.97-76.6-24.67l24.27-32.44c-32.06 11.44-65.23 21-98.12 29.8-10.64-17.6-18.2-38.22-26.38-57.08-1.15 15.58-4.23 31.18-6.66 46.6l-15.96 100.76c-2.63 17.14-6.1 34.69-7.33 51.96l163.85.19c43.77-.01 87.63.54 131.38-.36-12.27-5.55-26.12-6.86-38.15-12.14a3193 3193 0 0 0-121.7-29.09c-20.63-4.62-41.62-8.46-62.08-13.71-3.16-.81-6.78-1.63-9.34-3.75.08-7.9 28.4-50.21 35.42-58.27 39.83 5.62 79.68 15.04 119 23.56 50.15 10.86 100.91 21.26 149.56 37.85-11.92 18.45-25.14 36.45-36.32 55.3 19.89 1 50.98 4.45 66.81-9.82 5.11-4.62 8.75-11 10.79-17.54 6.16-19.72 8.5-48 11.73-68.84 5.41-34.86 12.13-69.99 15.97-105.04-14.48 16.45-32.74 43.18-48.4 56.51-31.45-8.45-63.06-18.45-93.3-30.55-20.05-8.03-40.49-19.03-61.12-24.97l-.28-.08c-11.9 5.06-24.42 11.44-36.93 14.6m-69.9-174.55c22.91-17.37 47.92-35.69 63.8-60.1-41.02-3.65-83.6-1.52-124.84-1.48-5.1 35.34-12.65 70.79-16.28 106.28 19.78-4.7 59.97-31.3 77.31-44.7M885.34 283.2c-6-7.94-35.13-50.96-39.54-53.95a1844 1844 0 0 0-10.43 63.3c-1.74 11.38-2.98 23.13-5.48 34.37 35.86-5.12 72.14-16.68 106.89-26.76a285 285 0 0 0 22.63-8.03c-10.1-8.7-20.76-19.02-29.14-29.38-14.81 6.77-29.69 14.8-44.93 20.45m105.67-58.12c7.15 7.08 15.54 12.59 23.18 19.07 8.11 6.19 16.47 12.2 24.39 18.62 7.44-4.2 59.27-32.76 61.35-38.22-36.28.88-72.67-.62-108.92.53m23.3-104.6c-9.94.13-19.71.1-29.56 1.65 26.23 4.67 56.19 6.74 80.93 16.64-6.73 7.14-12.8 14.75-18.91 22.4 30.89-.09 61.71.56 92.59.81 18.09.16 36.25-.3 54.33.17 15.87 9.48 33.23 21.65 46.58 34.52a566 566 0 0 1-125.44 99.86l20.63 7.12c32.37 9.88 66.63 20.5 100.04 25.97l33.68-209.22c-84.87-1.28-169.99-.43-254.87.08"/><path fill="url(#b)" d="M1576.63 86.54c12.62-1.45 25.81.14 38.52.12l101.32.32c4.57 23.32 7.95 46.97 11.79 70.42a10744 10744 0 0 1 22.98 144.92c14.82 95.84 30.33 191.7 43.66 287.77-40.29.7-80.67.17-120.97.18-3.63-22.92-5.95-46.23-8.68-69.27-1.99-16.74-4.87-33.78-5.34-50.63-12.75-2.04-26.47-1.13-39.38-1.13l-64.03.05-48.75.16c-6.55 12.97-11.45 27.49-17.08 40.94a6624 6624 0 0 1-34.21 79.98c-39.72-.9-79.62.03-119.37-.2 36.46-86.86 75.69-172.88 114.66-258.64a12993 12993 0 0 1 112.61-244.49c4.14.04 8.15-.07 12.27-.5m-35.48 291.5q13.17-.53 26.35-.36c27.45-.02 55.02.48 82.46-.38-3.16-18.84-4.39-38.23-6.45-57.25l-12.62-118.97c-.56-5.15-1.59-26.61-3.33-30.04a7 7 0 0 0-1.34-1.4q-.27-.15-.57-.28c-11.88 21.59-19.61 46.85-28.95 69.7-18.82 46.06-38.6 92.21-55.55 138.98"/><path fill="url(#c)" d="M306.38 227.27 326.9 96.99c3.24-20.47 5.28-41.77 9.77-61.97.66-3 1.28-6.25 3.6-8.31 17.71-3.93 60.29-1.81 79.91-.57-.4 21.72-5.4 44.53-8.65 65.99h66.8c-.15 19.71-6.9 57.24-10.93 77.73l-66.44.18c-3.05 18.7-4.01 39.73-9.48 57.7 26.57 1.35 53.25-.55 79.8.76-1.23 26.38-6.56 53.26-10.14 79.45-23.87 2.93-48.02-1.54-71.75.37-1.7 16.76-3.91 34.03-7.09 50.56 21.63-4.27 42.84-11.18 64.46-15.15 6.39 25.16 10 51.42 13.67 77.1 3 21.08 6.62 42.75 6.62 64.07a569 569 0 0 1-69.82 17.87c-2.25-12.38-3.1-25.16-4.42-37.67-3.48-33.4-5.76-68.46-11.17-101.5-7.81 45.76-14.02 91.92-20.89 137.83-3.61 24.15-5.5 53.85-14.17 76.58-4.6 12.04-11.88 22.12-22.42 29.64-22.51 16.06-51.36 15.74-77.82 15.79-8.18.01-17.25.6-25.27-.68-1.46-26.77-1.1-54.04-.17-80.82 4.45-.2 8.9.03 13.34.17 9.73 1.5 24.65 3.14 32.91-3.16 4.46-3.4 6.18-11.43 7.42-16.6 4.45-18.41 6.15-38.3 8.89-57.09l14.4-97.72c-6.82 14.44-11.88 30.24-17.67 45.17-15.33 39.5-30.12 80.11-48.5 118.28-10.34-1.96-57.99-17.6-64.98-23.48-.57-2.3-.21-3.76.64-5.93 10-25.4 22.15-50.23 32.52-75.54 11.52-28.1 21.55-57.37 34.3-84.92 21.55 5 42.65 12.3 64.17 17.6 3.92-16.28 5.55-33.7 8.01-50.3-15 1.23-54.06-2.55-64.73 1.16a15 15 0 0 1-1.4 4.8l-.26.54c-2.09-4.7-7.25-5.94-7.72-8.01-2.06-9.12 6.88-22.1 2.15-30.73 4.72-15.48 4-32.52 9.35-47.82 20.84-.35 41.82-.05 62.62-1.09"/><path fill="url(#d)" d="M501.35 58.41c8.25-.93 17.03-.37 25.34-.37l46.11.02 60.8-.02c13.15.01 26.58-.48 39.67 1 7.4.83 15.31 2.87 21.71 6.77 4.4 2.68 7.85 5.87 9.1 11.08 3.28 13.8-4.14 40.9-6.84 55.02-19.2 100.18-60.72 244.01-114.2 330.5 14.04 44.48 34.19 82.36 59.87 121.06-20.34 21.18-40.62 43.06-65.61 58.91-21.59-22.2-42.47-63.82-54.68-92.63-27.62 30.29-65.41 70.34-99.69 92.39-3.32-3.28-6.36-6.95-9.48-10.42-12.82-17.2-28.43-34.2-38.87-52.93 11.17-10.97 25.34-19.56 37.09-30.14 32.29-29.08 59.16-60.72 84.9-95.6-14.8-77.99-15.39-162.25-10.94-241.24 1.11-19.77 1.75-39.99 4.62-59.59 23.66-1 47.11-1.41 70.8-1.18.73 24.74-3.08 50.33-3.7 75.18-.84 33.2 1.58 66.19 3.04 99.32 5.03-8.27 8.31-18.88 11.78-27.98 19.78-51.9 33.38-106.45 45.44-160.58-46.1-.5-92.34 1.06-138.43-.32 2.13-16.2 7.45-63.32 12.98-76.29 2.3-1.93 6.29-1.72 9.18-1.96"/><path fill="#f6e1c6" d="M220.91 541.95c4.45-.22 8.9.02 13.34.16l-1.5 2.56c-1.15.29-6.92 1-7.22 1.5-5.7 9.27.62 52.6-1.44 67.21-.44 3.15-1.77 5.73-2.77 8.69l-.24.7c-1.46-26.78-1.1-54.05-.17-80.83m-70.1-524.76c13.02-.62 69.79-2.39 77.83 1.97 2.76 8.5-12.21 94.76-15 108.8 16.27.01 35.32-1.83 51.16 1.36-.8 23.24-7.18 56.27-11.47 79.78-18.15 1.21-36.46-.36-54.65.9 9.82 24.07 25.77 43.71 35.72 66.19 4.73 8.64-4.2 21.61-2.15 30.73.47 2.07 5.63 3.32 7.72 8-13.9 17.3-25.48 36.23-40.12 53.08-7.17-10.2-12.41-22.16-18.43-33.1-4.96 23.7-7.87 48.15-11.5 72.12l-21.34 139.02c-4.6 30.24-8.37 61.12-14.69 91.05-27.23 1.58-55.39.58-82.69.15 6.2-53.56 16.13-107.47 25.26-160.62 3.47-20.2 7.78-40.42 10.4-60.74-8.78 19.74-29.51 55.46-43.4 72.53-1.79 2.19-3.14 4.11-6.02 4.42-6.32-7.98-24.16-67.26-27.6-80.46 10.22-17.69 23.34-33.98 33.76-51.69 28.47-48.37 50.58-98.42 70.51-150.8-11.62-.56-46.46 2.09-54.53-1.55-2.62-10.4 7.58-65.88 10.72-78.92 16.91-3.54 43.67-1.34 61.75-1.52 5.54-24.99 8.27-51.44 12.22-76.8 1.75-11.26 2.92-23.06 6.54-33.9"/><path fill="#87e3f4" d="M1921.23 87.28c23.46-.35 46.96-.12 70.42-.12 15.03 0 30.57-.78 45.52.6a14158 14158 0 0 1-29.75 182l-31.52 193.28c-6.89 42.18-14.6 84.4-20.5 126.72-10.43 2.42-24.72.68-35.64.66l-79.3-.17c8.78-45.2 14.54-91.31 21.66-136.8l37.01-231.33 14.37-89.34c2.35-14.75 3.58-31.27 7.73-45.5"/></svg>